<?xml version="1.0" encoding="UTF-8" standalone="no"?>
<!DOCTYPE svg PUBLIC "-//W3C//DTD SVG 1.1//EN"
 "http://www.w3.org/Graphics/SVG/1.1/DTD/svg11.dtd">
<!-- Generated by graphviz version 2.38.0 (20140413.2041)
 -->
<!-- Title: controllers_diagram Pages: 1 -->
<svg width="648pt" height="477pt"
 viewBox="0.00 0.00 647.76 477.07" xmlns="http://www.w3.org/2000/svg" xmlns:xlink="http://www.w3.org/1999/xlink">
<g id="graph0" class="graph" transform="scale(1 1) rotate(0) translate(256.077 257.5)">
<title>controllers_diagram</title>
<polygon fill="none" stroke="none" points="-256.077,219.568 -256.077,-257.5 391.688,-257.5 391.688,219.568 -256.077,219.568"/>
<!-- _diagram_info -->
<g id="node1" class="node"><title>_diagram_info</title>
<text text-anchor="start" x="188.312" y="-239.1" font-family="Times,serif" font-size="13.00">Controllers diagram</text>
<text text-anchor="start" x="188.312" y="-226.1" font-family="Times,serif" font-size="13.00">Date: Aug 23 2016 &#45; 11:37</text>
<text text-anchor="start" x="188.312" y="-213.1" font-family="Times,serif" font-size="13.00">Migration version: 20160823151631</text>
<text text-anchor="start" x="188.312" y="-200.1" font-family="Times,serif" font-size="13.00">Generated by RailRoady 1.5.1</text>
<text text-anchor="start" x="188.312" y="-187.1" font-family="Times,serif" font-size="13.00">http://railroady.prestonlee.com</text>
</g>
<!-- ApplicationController -->
<g id="node2" class="node"><title>ApplicationController</title>
<path fill="none" stroke="black" d="M-67.749,69.1039C-67.749,69.1039 47.8926,69.1039 47.8926,69.1039 53.8926,69.1039 59.8926,63.1039 59.8926,57.1039 59.8926,57.1039 59.8926,-10.8961 59.8926,-10.8961 59.8926,-16.8961 53.8926,-22.8961 47.8926,-22.8961 47.8926,-22.8961 -67.749,-22.8961 -67.749,-22.8961 -73.749,-22.8961 -79.749,-16.8961 -79.749,-10.8961 -79.749,-10.8961 -79.749,57.1039 -79.749,57.1039 -79.749,63.1039 -73.749,69.1039 -67.749,69.1039"/>
<text text-anchor="middle" x="-9.92822" y="-7.69606" font-family="Times,serif" font-size="14.00">ApplicationController</text>
<polyline fill="none" stroke="black" points="-79.749,-0.896057 59.8926,-0.896057 "/>
<polyline fill="none" stroke="black" points="-79.749,23.1039 59.8926,23.1039 "/>
<polyline fill="none" stroke="black" points="-79.749,47.1039 59.8926,47.1039 "/>
<text text-anchor="start" x="-71.749" y="62.3039" font-family="Times,serif" font-size="14.00">_layout</text>
</g>
<!-- CitiesController -->
<g id="node3" class="node"><title>CitiesController</title>
<path fill="none" stroke="black" d="M110.997,175.046C110.997,175.046 193.211,175.046 193.211,175.046 199.211,175.046 205.211,169.046 205.211,163.046 205.211,163.046 205.211,95.0459 205.211,95.0459 205.211,89.0459 199.211,83.0459 193.211,83.0459 193.211,83.0459 110.997,83.0459 110.997,83.0459 104.997,83.0459 98.9974,89.0459 98.9974,95.0459 98.9974,95.0459 98.9974,163.046 98.9974,163.046 98.9974,169.046 104.997,175.046 110.997,175.046"/>
<text text-anchor="middle" x="152.104" y="98.2459" font-family="Times,serif" font-size="14.00">CitiesController</text>
<polyline fill="none" stroke="black" points="98.9974,105.046 205.211,105.046 "/>
<polyline fill="none" stroke="black" points="98.9974,129.046 205.211,129.046 "/>
<polyline fill="none" stroke="black" points="98.9974,153.046 205.211,153.046 "/>
<text text-anchor="start" x="106.997" y="168.246" font-family="Times,serif" font-size="14.00">_layout</text>
</g>
<!-- ApplicationController&#45;&gt;CitiesController -->
<g id="edge1" class="edge"><title>ApplicationController&#45;&gt;CitiesController</title>
<path fill="none" stroke="black" d="M60.1992,68.9554C73.1997,77.4556 86.5812,86.2048 98.9717,94.3061"/>
</g>
<!-- ListingsController -->
<g id="node4" class="node"><title>ListingsController</title>
<path fill="none" stroke="black" d="M-57.5971,215.068C-57.5971,215.068 37.065,215.068 37.065,215.068 43.065,215.068 49.065,209.068 49.065,203.068 49.065,203.068 49.065,135.068 49.065,135.068 49.065,129.068 43.065,123.068 37.065,123.068 37.065,123.068 -57.5971,123.068 -57.5971,123.068 -63.5971,123.068 -69.5971,129.068 -69.5971,135.068 -69.5971,135.068 -69.5971,203.068 -69.5971,203.068 -69.5971,209.068 -63.5971,215.068 -57.5971,215.068"/>
<text text-anchor="middle" x="-10.266" y="138.268" font-family="Times,serif" font-size="14.00">ListingsController</text>
<polyline fill="none" stroke="black" points="-69.5971,145.068 49.065,145.068 "/>
<polyline fill="none" stroke="black" points="-69.5971,169.068 49.065,169.068 "/>
<polyline fill="none" stroke="black" points="-69.5971,193.068 49.065,193.068 "/>
<text text-anchor="start" x="-61.5971" y="208.268" font-family="Times,serif" font-size="14.00">_layout</text>
</g>
<!-- ApplicationController&#45;&gt;ListingsController -->
<g id="edge2" class="edge"><title>ApplicationController&#45;&gt;ListingsController</title>
<path fill="none" stroke="black" d="M-10.0351,69.2877C-10.0747,86.4096 -10.1196,105.817 -10.1592,122.934"/>
</g>
<!-- NeighborhoodsController -->
<g id="node5" class="node"><title>NeighborhoodsController</title>
<path fill="none" stroke="black" d="M-240.077,-36.8697C-240.077,-36.8697 -104.208,-36.8697 -104.208,-36.8697 -98.208,-36.8697 -92.208,-42.8697 -92.208,-48.8697 -92.208,-48.8697 -92.208,-116.87 -92.208,-116.87 -92.208,-122.87 -98.208,-128.87 -104.208,-128.87 -104.208,-128.87 -240.077,-128.87 -240.077,-128.87 -246.077,-128.87 -252.077,-122.87 -252.077,-116.87 -252.077,-116.87 -252.077,-48.8697 -252.077,-48.8697 -252.077,-42.8697 -246.077,-36.8697 -240.077,-36.8697"/>
<text text-anchor="middle" x="-172.143" y="-113.67" font-family="Times,serif" font-size="14.00">NeighborhoodsController</text>
<polyline fill="none" stroke="black" points="-252.077,-106.87 -92.208,-106.87 "/>
<polyline fill="none" stroke="black" points="-252.077,-82.8697 -92.208,-82.8697 "/>
<polyline fill="none" stroke="black" points="-252.077,-58.8697 -92.208,-58.8697 "/>
<text text-anchor="start" x="-244.077" y="-43.6697" font-family="Times,serif" font-size="14.00">_layout</text>
</g>
<!-- ApplicationController&#45;&gt;NeighborhoodsController -->
<g id="edge3" class="edge"><title>ApplicationController&#45;&gt;NeighborhoodsController</title>
<path fill="none" stroke="black" d="M-80.1344,-22.7613C-87.2413,-27.4042 -94.4619,-32.1214 -101.573,-36.7668"/>
</g>
<!-- ReservationsController -->
<g id="node6" class="node"><title>ReservationsController</title>
<path fill="none" stroke="black" d="M91.5037,-36.4634C91.5037,-36.4634 213.366,-36.4634 213.366,-36.4634 219.366,-36.4634 225.366,-42.4634 225.366,-48.4634 225.366,-48.4634 225.366,-116.463 225.366,-116.463 225.366,-122.463 219.366,-128.463 213.366,-128.463 213.366,-128.463 91.5037,-128.463 91.5037,-128.463 85.5037,-128.463 79.5037,-122.463 79.5037,-116.463 79.5037,-116.463 79.5037,-48.4634 79.5037,-48.4634 79.5037,-42.4634 85.5037,-36.4634 91.5037,-36.4634"/>
<text text-anchor="middle" x="152.435" y="-113.263" font-family="Times,serif" font-size="14.00">ReservationsController</text>
<polyline fill="none" stroke="black" points="79.5037,-106.463 225.366,-106.463 "/>
<polyline fill="none" stroke="black" points="79.5037,-82.4634 225.366,-82.4634 "/>
<polyline fill="none" stroke="black" points="79.5037,-58.4634 225.366,-58.4634 "/>
<text text-anchor="start" x="87.5037" y="-43.2634" font-family="Times,serif" font-size="14.00">_layout</text>
</g>
<!-- ApplicationController&#45;&gt;ReservationsController -->
<g id="edge4" class="edge"><title>ApplicationController&#45;&gt;ReservationsController</title>
<path fill="none" stroke="black" d="M60.3423,-22.5854C67.37,-27.1548 74.5088,-31.7964 81.5429,-36.37"/>
</g>
<!-- ReviewsController -->
<g id="node7" class="node"><title>ReviewsController</title>
<path fill="none" stroke="black" d="M-58.2281,-76.8549C-58.2281,-76.8549 39.5307,-76.8549 39.5307,-76.8549 45.5307,-76.8549 51.5307,-82.8549 51.5307,-88.8549 51.5307,-88.8549 51.5307,-156.855 51.5307,-156.855 51.5307,-162.855 45.5307,-168.855 39.5307,-168.855 39.5307,-168.855 -58.2281,-168.855 -58.2281,-168.855 -64.2281,-168.855 -70.2281,-162.855 -70.2281,-156.855 -70.2281,-156.855 -70.2281,-88.8549 -70.2281,-88.8549 -70.2281,-82.8549 -64.2281,-76.8549 -58.2281,-76.8549"/>
<text text-anchor="middle" x="-9.34869" y="-153.655" font-family="Times,serif" font-size="14.00">ReviewsController</text>
<polyline fill="none" stroke="black" points="-70.2281,-146.855 51.5307,-146.855 "/>
<polyline fill="none" stroke="black" points="-70.2281,-122.855 51.5307,-122.855 "/>
<polyline fill="none" stroke="black" points="-70.2281,-98.8549 51.5307,-98.8549 "/>
<text text-anchor="start" x="-62.2281" y="-83.6549" font-family="Times,serif" font-size="14.00">_layout</text>
</g>
<!-- ApplicationController&#45;&gt;ReviewsController -->
<g id="edge5" class="edge"><title>ApplicationController&#45;&gt;ReviewsController</title>
<path fill="none" stroke="black" d="M-9.74485,-23.0783C-9.67687,-40.1996 -9.59982,-59.6059 -9.53185,-76.7227"/>
</g>
<!-- UsersController -->
<g id="node8" class="node"><title>UsersController</title>
<path fill="none" stroke="black" d="M-213.187,174.719C-213.187,174.719 -131.759,174.719 -131.759,174.719 -125.759,174.719 -119.759,168.719 -119.759,162.719 -119.759,162.719 -119.759,94.7192 -119.759,94.7192 -119.759,88.7192 -125.759,82.7192 -131.759,82.7192 -131.759,82.7192 -213.187,82.7192 -213.187,82.7192 -219.187,82.7192 -225.187,88.7192 -225.187,94.7192 -225.187,94.7192 -225.187,162.719 -225.187,162.719 -225.187,168.719 -219.187,174.719 -213.187,174.719"/>
<text text-anchor="middle" x="-172.473" y="97.9192" font-family="Times,serif" font-size="14.00">UsersController</text>
<polyline fill="none" stroke="black" points="-225.187,104.719 -119.759,104.719 "/>
<polyline fill="none" stroke="black" points="-225.187,128.719 -119.759,128.719 "/>
<polyline fill="none" stroke="black" points="-225.187,152.719 -119.759,152.719 "/>
<text text-anchor="start" x="-217.187" y="167.919" font-family="Times,serif" font-size="14.00">_layout</text>
</g>
<!-- ApplicationController&#45;&gt;UsersController -->
<g id="edge6" class="edge"><title>ApplicationController&#45;&gt;UsersController</title>
<path fill="none" stroke="black" d="M-79.8051,68.5073C-93.0561,77.1172 -106.719,85.9951 -119.348,94.2008"/>
</g>
</g>
</svg>
