<?xml version="1.0" encoding="UTF-8" standalone="no"?>
<!DOCTYPE svg PUBLIC "-//W3C//DTD SVG 1.1//EN"
 "http://www.w3.org/Graphics/SVG/1.1/DTD/svg11.dtd">
<!-- Generated by graphviz version 2.38.0 (20140413.2041)
 -->
<!-- Title: models_diagram Pages: 1 -->
<svg width="461pt" height="297pt"
 viewBox="0.00 0.00 461.03 297.00" xmlns="http://www.w3.org/2000/svg" xmlns:xlink="http://www.w3.org/1999/xlink">
<g id="graph0" class="graph" transform="scale(1 1) rotate(0) translate(4 293)">
<title>models_diagram</title>
<polygon fill="none" stroke="none" points="-4,4 -4,-293 457.034,-293 457.034,4 -4,4"/>
<!-- _diagram_info -->
<g id="node1" class="node"><title>_diagram_info</title>
<text text-anchor="start" x="8" y="-274.6" font-family="Times,serif" font-size="13.00">Models diagram</text>
<text text-anchor="start" x="8" y="-261.6" font-family="Times,serif" font-size="13.00">Date: Aug 23 2016 &#45; 11:37</text>
<text text-anchor="start" x="8" y="-248.6" font-family="Times,serif" font-size="13.00">Migration version: 20160823151631</text>
<text text-anchor="start" x="8" y="-235.6" font-family="Times,serif" font-size="13.00">Generated by RailRoady 1.5.1</text>
<text text-anchor="start" x="8" y="-222.6" font-family="Times,serif" font-size="13.00">http://railroady.prestonlee.com</text>
</g>
<!-- City -->
<g id="node2" class="node"><title>City</title>
<ellipse fill="none" stroke="black" cx="252.688" cy="-252.5" rx="27" ry="18"/>
<text text-anchor="middle" x="252.688" y="-248.3" font-family="Times,serif" font-size="14.00">City</text>
</g>
<!-- Listing -->
<g id="node3" class="node"><title>Listing</title>
<ellipse fill="none" stroke="black" cx="298.688" cy="-90" rx="35.3303" ry="18"/>
<text text-anchor="middle" x="298.688" y="-85.8" font-family="Times,serif" font-size="14.00">Listing</text>
</g>
<!-- City&#45;&gt;Listing -->
<g id="edge2" class="edge"><title>City&#45;&gt;Listing</title>
<path fill="none" stroke="#d63e3b" d="M237.441,-226.853C225.603,-204.312 213.27,-170.539 226.688,-144 234.633,-128.285 249.678,-116.089 263.968,-107.381"/>
<polygon fill="#d63e3b" stroke="#d63e3b" points="237.542,-227.035 238.475,-237.961 239.974,-231.403 242.407,-235.772 242.407,-235.772 242.407,-235.772 239.974,-231.403 246.338,-233.582 237.542,-227.035 237.542,-227.035"/>
<polygon fill="#d63e3b" stroke="#d63e3b" points="264.009,-107.357 274.925,-106.318 268.353,-104.883 272.698,-102.408 272.698,-102.408 272.698,-102.408 268.353,-104.883 270.471,-98.498 264.009,-107.357 264.009,-107.357"/>
</g>
<!-- Neighborhood -->
<g id="node4" class="node"><title>Neighborhood</title>
<ellipse fill="none" stroke="black" cx="296.688" cy="-162" rx="61.3891" ry="18"/>
<text text-anchor="middle" x="296.688" y="-157.8" font-family="Times,serif" font-size="14.00">Neighborhood</text>
</g>
<!-- City&#45;&gt;Neighborhood -->
<g id="edge1" class="edge"><title>City&#45;&gt;Neighborhood</title>
<path fill="none" stroke="#1db01f" d="M264.463,-227.815C270.372,-215.93 277.547,-201.5 283.625,-189.275"/>
<ellipse fill="none" stroke="#1db01f" cx="262.539" cy="-231.686" rx="4.00002" ry="4.00002"/>
<polygon fill="#1db01f" stroke="#1db01f" points="283.767,-188.989 292.248,-182.038 285.993,-184.511 288.219,-180.034 288.219,-180.034 288.219,-180.034 285.993,-184.511 284.189,-178.031 283.767,-188.989 283.767,-188.989"/>
</g>
<!-- Reservation -->
<g id="node5" class="node"><title>Reservation</title>
<ellipse fill="none" stroke="black" cx="400.688" cy="-18" rx="52.1934" ry="18"/>
<text text-anchor="middle" x="400.688" y="-13.8" font-family="Times,serif" font-size="14.00">Reservation</text>
</g>
<!-- Listing&#45;&gt;Reservation -->
<g id="edge3" class="edge"><title>Listing&#45;&gt;Reservation</title>
<path fill="none" stroke="#bd944c" d="M325.559,-70.5588C339.106,-61.2622 355.604,-49.9401 369.685,-40.2765"/>
<ellipse fill="none" stroke="#bd944c" cx="322.138" cy="-72.9069" rx="4.00002" ry="4.00002"/>
<polygon fill="#bd944c" stroke="#bd944c" points="369.847,-40.1652 380.638,-38.2171 373.97,-37.336 378.092,-34.5068 378.092,-34.5068 378.092,-34.5068 373.97,-37.336 375.546,-30.7964 369.847,-40.1652 369.847,-40.1652"/>
</g>
<!-- Guest -->
<g id="node8" class="node"><title>Guest</title>
<ellipse fill="none" stroke="black" cx="298.688" cy="-18" rx="30.9793" ry="18"/>
<text text-anchor="middle" x="298.688" y="-13.8" font-family="Times,serif" font-size="14.00">Guest</text>
</g>
<!-- Listing&#45;&gt;Guest -->
<g id="edge4" class="edge"><title>Listing&#45;&gt;Guest</title>
<path fill="none" stroke="#a5815f" d="M298.688,-61.6651C298.688,-56.6867 298.688,-51.4906 298.688,-46.5072"/>
<polygon fill="#a5815f" stroke="#a5815f" points="298.688,-61.6966 294.188,-71.6966 298.688,-66.6966 298.688,-71.6966 298.688,-71.6966 298.688,-71.6966 298.688,-66.6966 303.188,-71.6967 298.688,-61.6966 298.688,-61.6966"/>
<polygon fill="#a5815f" stroke="#a5815f" points="298.688,-46.1043 303.188,-36.1043 298.688,-41.1043 298.688,-36.1043 298.688,-36.1043 298.688,-36.1043 298.688,-41.1043 294.188,-36.1044 298.688,-46.1043 298.688,-46.1043"/>
</g>
<!-- Neighborhood&#45;&gt;Listing -->
<g id="edge5" class="edge"><title>Neighborhood&#45;&gt;Listing</title>
<path fill="none" stroke="#b55865" d="M297.412,-135.64C297.572,-130.063 297.741,-124.132 297.903,-118.476"/>
<ellipse fill="none" stroke="#b55865" cx="297.296" cy="-139.698" rx="4" ry="4"/>
<polygon fill="#b55865" stroke="#b55865" points="297.913,-118.1 302.697,-108.233 298.056,-113.102 298.199,-108.104 298.199,-108.104 298.199,-108.104 298.056,-113.102 293.701,-107.976 297.913,-118.1 297.913,-118.1"/>
</g>
<!-- Review -->
<g id="node6" class="node"><title>Review</title>
<ellipse fill="none" stroke="black" cx="334.688" cy="-252.5" rx="37.2421" ry="18"/>
<text text-anchor="middle" x="334.688" y="-248.3" font-family="Times,serif" font-size="14.00">Review</text>
</g>
<!-- User -->
<g id="node7" class="node"><title>User</title>
<ellipse fill="none" stroke="black" cx="402.688" cy="-162" rx="27" ry="18"/>
<text text-anchor="middle" x="402.688" y="-157.8" font-family="Times,serif" font-size="14.00">User</text>
</g>
<!-- User&#45;&gt;Listing -->
<g id="edge6" class="edge"><title>User&#45;&gt;Listing</title>
<path fill="none" stroke="#f800c9" d="M377.324,-143.928C362.415,-133.893 343.503,-121.164 327.963,-110.704"/>
<ellipse fill="none" stroke="#f800c9" cx="380.776" cy="-146.252" rx="4.00002" ry="4.00002"/>
<polygon fill="#f800c9" stroke="#f800c9" points="327.554,-110.429 321.771,-101.112 323.406,-107.637 319.258,-104.845 319.258,-104.845 319.258,-104.845 323.406,-107.637 316.745,-108.579 327.554,-110.429 327.554,-110.429"/>
</g>
<!-- User&#45;&gt;Reservation -->
<g id="edge7" class="edge"><title>User&#45;&gt;Reservation</title>
<path fill="none" stroke="#575236" d="M402.329,-135.558C401.976,-110.444 401.437,-72.164 401.074,-46.3932"/>
<ellipse fill="none" stroke="#575236" cx="402.39" cy="-139.872" rx="4" ry="4"/>
<polygon fill="#575236" stroke="#575236" points="401.071,-46.1883 405.429,-36.1258 401,-41.1888 400.93,-36.1893 400.93,-36.1893 400.93,-36.1893 401,-41.1888 396.43,-36.2527 401.071,-46.1883 401.071,-46.1883"/>
</g>
</g>
</svg>
