<?xml version="1.0" encoding="UTF-8" standalone="no"?>
<!DOCTYPE svg PUBLIC "-//W3C//DTD SVG 1.1//EN"
 "http://www.w3.org/Graphics/SVG/1.1/DTD/svg11.dtd">
<!-- Generated by graphviz version 2.38.0 (20140413.2041)
 -->
<!-- Title: models_diagram Pages: 1 -->
<svg width="564pt" height="618pt"
 viewBox="0.00 0.00 564.19 618.00" xmlns="http://www.w3.org/2000/svg" xmlns:xlink="http://www.w3.org/1999/xlink">
<g id="graph0" class="graph" transform="scale(1 1) rotate(0) translate(4 614)">
<title>models_diagram</title>
<polygon fill="none" stroke="none" points="-4,4 -4,-614 560.193,-614 560.193,4 -4,4"/>
<!-- _diagram_info -->
<g id="node1" class="node"><title>_diagram_info</title>
<text text-anchor="start" x="8" y="-581.6" font-family="Times,serif" font-size="13.00">Models diagram</text>
<text text-anchor="start" x="8" y="-568.6" font-family="Times,serif" font-size="13.00">Date: Aug 23 2016 &#45; 11:37</text>
<text text-anchor="start" x="8" y="-555.6" font-family="Times,serif" font-size="13.00">Migration version: 20160823151631</text>
<text text-anchor="start" x="8" y="-542.6" font-family="Times,serif" font-size="13.00">Generated by RailRoady 1.5.1</text>
<text text-anchor="start" x="8" y="-529.6" font-family="Times,serif" font-size="13.00">http://railroady.prestonlee.com</text>
</g>
<!-- City -->
<g id="node2" class="node"><title>City</title>
<path fill="none" stroke="black" d="M237.182,-516.5C237.182,-516.5 346.193,-516.5 346.193,-516.5 352.193,-516.5 358.193,-522.5 358.193,-528.5 358.193,-528.5 358.193,-590.5 358.193,-590.5 358.193,-596.5 352.193,-602.5 346.193,-602.5 346.193,-602.5 237.182,-602.5 237.182,-602.5 231.182,-602.5 225.182,-596.5 225.182,-590.5 225.182,-590.5 225.182,-528.5 225.182,-528.5 225.182,-522.5 231.182,-516.5 237.182,-516.5"/>
<text text-anchor="middle" x="291.688" y="-587.3" font-family="Times,serif" font-size="14.00">City</text>
<polyline fill="none" stroke="black" points="225.182,-580.5 358.193,-580.5 "/>
<text text-anchor="start" x="233.182" y="-565.3" font-family="Times,serif" font-size="14.00">id :INTEGER</text>
<text text-anchor="start" x="233.182" y="-551.3" font-family="Times,serif" font-size="14.00">name :varchar</text>
<text text-anchor="start" x="233.182" y="-537.3" font-family="Times,serif" font-size="14.00">created_at :datetime</text>
<text text-anchor="start" x="233.182" y="-523.3" font-family="Times,serif" font-size="14.00">updated_at :datetime</text>
</g>
<!-- Listing -->
<g id="node3" class="node"><title>Listing</title>
<path fill="none" stroke="black" d="M289.731,-165.5C289.731,-165.5 423.645,-165.5 423.645,-165.5 429.645,-165.5 435.645,-171.5 435.645,-177.5 435.645,-177.5 435.645,-323.5 435.645,-323.5 435.645,-329.5 429.645,-335.5 423.645,-335.5 423.645,-335.5 289.731,-335.5 289.731,-335.5 283.731,-335.5 277.731,-329.5 277.731,-323.5 277.731,-323.5 277.731,-177.5 277.731,-177.5 277.731,-171.5 283.731,-165.5 289.731,-165.5"/>
<text text-anchor="middle" x="356.688" y="-320.3" font-family="Times,serif" font-size="14.00">Listing</text>
<polyline fill="none" stroke="black" points="277.731,-313.5 435.645,-313.5 "/>
<text text-anchor="start" x="285.731" y="-298.3" font-family="Times,serif" font-size="14.00">host_id :integer</text>
<text text-anchor="start" x="285.731" y="-284.3" font-family="Times,serif" font-size="14.00">title :varchar</text>
<text text-anchor="start" x="285.731" y="-270.3" font-family="Times,serif" font-size="14.00">created_at :datetime</text>
<text text-anchor="start" x="285.731" y="-256.3" font-family="Times,serif" font-size="14.00">updated_at :datetime</text>
<text text-anchor="start" x="285.731" y="-242.3" font-family="Times,serif" font-size="14.00">address :varchar</text>
<text text-anchor="start" x="285.731" y="-228.3" font-family="Times,serif" font-size="14.00">listing_type :varchar</text>
<text text-anchor="start" x="285.731" y="-214.3" font-family="Times,serif" font-size="14.00">description :varchar</text>
<text text-anchor="start" x="285.731" y="-200.3" font-family="Times,serif" font-size="14.00">price :integer</text>
<text text-anchor="start" x="285.731" y="-186.3" font-family="Times,serif" font-size="14.00">neighborhood_id :integer</text>
<text text-anchor="start" x="285.731" y="-172.3" font-family="Times,serif" font-size="14.00">id :INTEGER</text>
</g>
<!-- City&#45;&gt;Listing -->
<g id="edge2" class="edge"><title>City&#45;&gt;Listing</title>
<path fill="none" stroke="#3ece39" d="M270.509,-506.524C258.107,-468.441 247.574,-415.947 262.688,-372 265.924,-362.591 270.228,-353.353 275.22,-344.438"/>
<polygon fill="#3ece39" stroke="#3ece39" points="270.639,-506.906 269.602,-517.822 272.25,-511.639 273.862,-516.372 273.862,-516.372 273.862,-516.372 272.25,-511.639 278.122,-514.922 270.639,-506.906 270.639,-506.906"/>
<polygon fill="#3ece39" stroke="#3ece39" points="275.335,-344.243 284.299,-337.927 277.88,-339.939 280.425,-335.636 280.425,-335.636 280.425,-335.636 277.88,-339.939 276.552,-333.345 275.335,-344.243 275.335,-344.243"/>
</g>
<!-- Neighborhood -->
<g id="node4" class="node"><title>Neighborhood</title>
<path fill="none" stroke="black" d="M284.182,-372.5C284.182,-372.5 393.193,-372.5 393.193,-372.5 399.193,-372.5 405.193,-378.5 405.193,-384.5 405.193,-384.5 405.193,-460.5 405.193,-460.5 405.193,-466.5 399.193,-472.5 393.193,-472.5 393.193,-472.5 284.182,-472.5 284.182,-472.5 278.182,-472.5 272.182,-466.5 272.182,-460.5 272.182,-460.5 272.182,-384.5 272.182,-384.5 272.182,-378.5 278.182,-372.5 284.182,-372.5"/>
<text text-anchor="middle" x="338.688" y="-457.3" font-family="Times,serif" font-size="14.00">Neighborhood</text>
<polyline fill="none" stroke="black" points="272.182,-450.5 405.193,-450.5 "/>
<text text-anchor="start" x="280.182" y="-435.3" font-family="Times,serif" font-size="14.00">id :INTEGER</text>
<text text-anchor="start" x="280.182" y="-421.3" font-family="Times,serif" font-size="14.00">name :varchar</text>
<text text-anchor="start" x="280.182" y="-407.3" font-family="Times,serif" font-size="14.00">created_at :datetime</text>
<text text-anchor="start" x="280.182" y="-393.3" font-family="Times,serif" font-size="14.00">updated_at :datetime</text>
<text text-anchor="start" x="280.182" y="-379.3" font-family="Times,serif" font-size="14.00">city_id :integer</text>
</g>
<!-- City&#45;&gt;Neighborhood -->
<g id="edge1" class="edge"><title>City&#45;&gt;Neighborhood</title>
<path fill="none" stroke="#dc2b64" d="M309.062,-508.594C312.021,-500.096 315.119,-491.197 318.15,-482.491"/>
<ellipse fill="none" stroke="#dc2b64" cx="307.745" cy="-512.378" rx="4.00001" ry="4.00001"/>
<polygon fill="#dc2b64" stroke="#dc2b64" points="318.245,-482.218 325.783,-474.253 319.889,-477.496 321.533,-472.774 321.533,-472.774 321.533,-472.774 319.889,-477.496 317.283,-471.294 318.245,-482.218 318.245,-482.218"/>
</g>
<!-- Reservation -->
<g id="node5" class="node"><title>Reservation</title>
<path fill="none" stroke="black" d="M421.182,-0.5C421.182,-0.5 530.193,-0.5 530.193,-0.5 536.193,-0.5 542.193,-6.5 542.193,-12.5 542.193,-12.5 542.193,-116.5 542.193,-116.5 542.193,-122.5 536.193,-128.5 530.193,-128.5 530.193,-128.5 421.182,-128.5 421.182,-128.5 415.182,-128.5 409.182,-122.5 409.182,-116.5 409.182,-116.5 409.182,-12.5 409.182,-12.5 409.182,-6.5 415.182,-0.5 421.182,-0.5"/>
<text text-anchor="middle" x="475.688" y="-113.3" font-family="Times,serif" font-size="14.00">Reservation</text>
<polyline fill="none" stroke="black" points="409.182,-106.5 542.193,-106.5 "/>
<text text-anchor="start" x="417.182" y="-91.3" font-family="Times,serif" font-size="14.00">checkin :date</text>
<text text-anchor="start" x="417.182" y="-77.3" font-family="Times,serif" font-size="14.00">created_at :datetime</text>
<text text-anchor="start" x="417.182" y="-63.3" font-family="Times,serif" font-size="14.00">updated_at :datetime</text>
<text text-anchor="start" x="417.182" y="-49.3" font-family="Times,serif" font-size="14.00">id :INTEGER</text>
<text text-anchor="start" x="417.182" y="-35.3" font-family="Times,serif" font-size="14.00">checkout :date</text>
<text text-anchor="start" x="417.182" y="-21.3" font-family="Times,serif" font-size="14.00">listing_id :integer</text>
<text text-anchor="start" x="417.182" y="-7.3" font-family="Times,serif" font-size="14.00">guest_id :integer</text>
</g>
<!-- Listing&#45;&gt;Reservation -->
<g id="edge3" class="edge"><title>Listing&#45;&gt;Reservation</title>
<path fill="none" stroke="#4b8d87" d="M415.622,-158.374C420.182,-151.324 424.746,-144.267 429.207,-137.369"/>
<ellipse fill="none" stroke="#4b8d87" cx="413.31" cy="-161.949" rx="4.00002" ry="4.00002"/>
<polygon fill="#4b8d87" stroke="#4b8d87" points="429.365,-137.126 438.574,-131.173 432.08,-132.927 434.795,-128.729 434.795,-128.729 434.795,-128.729 432.08,-132.927 431.017,-126.285 429.365,-137.126 429.365,-137.126"/>
</g>
<!-- Guest -->
<g id="node8" class="node"><title>Guest</title>
<ellipse fill="none" stroke="black" cx="356.688" cy="-64.5" rx="30.9793" ry="18"/>
<text text-anchor="middle" x="356.688" y="-60.3" font-family="Times,serif" font-size="14.00">Guest</text>
</g>
<!-- Listing&#45;&gt;Guest -->
<g id="edge4" class="edge"><title>Listing&#45;&gt;Guest</title>
<path fill="none" stroke="#f88ce6" d="M356.688,-155.037C356.688,-132.157 356.688,-109.48 356.688,-92.6718"/>
<polygon fill="#f88ce6" stroke="#f88ce6" points="356.688,-155.308 352.188,-165.308 356.688,-160.308 356.688,-165.308 356.688,-165.308 356.688,-165.308 356.688,-160.308 361.188,-165.308 356.688,-155.308 356.688,-155.308"/>
<polygon fill="#f88ce6" stroke="#f88ce6" points="356.688,-92.5312 361.188,-82.5311 356.688,-87.5312 356.688,-82.5312 356.688,-82.5312 356.688,-82.5312 356.688,-87.5312 352.188,-82.5312 356.688,-92.5312 356.688,-92.5312"/>
</g>
<!-- Neighborhood&#45;&gt;Listing -->
<g id="edge5" class="edge"><title>Neighborhood&#45;&gt;Listing</title>
<path fill="none" stroke="#8e72a1" d="M344.765,-364.1C345.384,-358.257 346.023,-352.219 346.67,-346.113"/>
<ellipse fill="none" stroke="#8e72a1" cx="344.315" cy="-368.351" rx="4" ry="4"/>
<polygon fill="#8e72a1" stroke="#8e72a1" points="346.709,-345.742 352.237,-336.272 347.236,-340.77 347.762,-335.798 347.762,-335.798 347.762,-335.798 347.236,-340.77 343.287,-335.324 346.709,-345.742 346.709,-345.742"/>
</g>
<!-- Review -->
<g id="node6" class="node"><title>Review</title>
<path fill="none" stroke="black" d="M388.182,-509.5C388.182,-509.5 497.193,-509.5 497.193,-509.5 503.193,-509.5 509.193,-515.5 509.193,-521.5 509.193,-521.5 509.193,-597.5 509.193,-597.5 509.193,-603.5 503.193,-609.5 497.193,-609.5 497.193,-609.5 388.182,-609.5 388.182,-609.5 382.182,-609.5 376.182,-603.5 376.182,-597.5 376.182,-597.5 376.182,-521.5 376.182,-521.5 376.182,-515.5 382.182,-509.5 388.182,-509.5"/>
<text text-anchor="middle" x="442.688" y="-594.3" font-family="Times,serif" font-size="14.00">Review</text>
<polyline fill="none" stroke="black" points="376.182,-587.5 509.193,-587.5 "/>
<text text-anchor="start" x="384.182" y="-572.3" font-family="Times,serif" font-size="14.00">id :INTEGER</text>
<text text-anchor="start" x="384.182" y="-558.3" font-family="Times,serif" font-size="14.00">description :varchar</text>
<text text-anchor="start" x="384.182" y="-544.3" font-family="Times,serif" font-size="14.00">rating :integer</text>
<text text-anchor="start" x="384.182" y="-530.3" font-family="Times,serif" font-size="14.00">created_at :datetime</text>
<text text-anchor="start" x="384.182" y="-516.3" font-family="Times,serif" font-size="14.00">updated_at :datetime</text>
</g>
<!-- User -->
<g id="node7" class="node"><title>User</title>
<path fill="none" stroke="black" d="M435.182,-379.5C435.182,-379.5 544.193,-379.5 544.193,-379.5 550.193,-379.5 556.193,-385.5 556.193,-391.5 556.193,-391.5 556.193,-453.5 556.193,-453.5 556.193,-459.5 550.193,-465.5 544.193,-465.5 544.193,-465.5 435.182,-465.5 435.182,-465.5 429.182,-465.5 423.182,-459.5 423.182,-453.5 423.182,-453.5 423.182,-391.5 423.182,-391.5 423.182,-385.5 429.182,-379.5 435.182,-379.5"/>
<text text-anchor="middle" x="489.688" y="-450.3" font-family="Times,serif" font-size="14.00">User</text>
<polyline fill="none" stroke="black" points="423.182,-443.5 556.193,-443.5 "/>
<text text-anchor="start" x="431.182" y="-428.3" font-family="Times,serif" font-size="14.00">id :INTEGER</text>
<text text-anchor="start" x="431.182" y="-414.3" font-family="Times,serif" font-size="14.00">name :varchar</text>
<text text-anchor="start" x="431.182" y="-400.3" font-family="Times,serif" font-size="14.00">created_at :datetime</text>
<text text-anchor="start" x="431.182" y="-386.3" font-family="Times,serif" font-size="14.00">updated_at :datetime</text>
</g>
<!-- User&#45;&gt;Listing -->
<g id="edge6" class="edge"><title>User&#45;&gt;Listing</title>
<path fill="none" stroke="#df40df" d="M451.803,-373.076C444.549,-363.804 436.735,-353.816 428.813,-343.69"/>
<ellipse fill="none" stroke="#df40df" cx="454.347" cy="-376.327" rx="4.00002" ry="4.00002"/>
<polygon fill="#df40df" stroke="#df40df" points="428.607,-343.427 425.989,-332.778 425.526,-339.489 422.445,-335.551 422.445,-335.551 422.445,-335.551 425.526,-339.489 418.901,-338.323 428.607,-343.427 428.607,-343.427"/>
</g>
<!-- User&#45;&gt;Reservation -->
<g id="edge7" class="edge"><title>User&#45;&gt;Reservation</title>
<path fill="none" stroke="#094fb4" d="M487.701,-370.971C485.318,-310.392 481.307,-208.38 478.581,-139.062"/>
<ellipse fill="none" stroke="#094fb4" cx="487.87" cy="-375.267" rx="4" ry="4"/>
<polygon fill="#094fb4" stroke="#094fb4" points="478.564,-138.648 482.668,-128.479 478.368,-133.652 478.171,-128.655 478.171,-128.655 478.171,-128.655 478.368,-133.652 473.675,-128.832 478.564,-138.648 478.564,-138.648"/>
</g>
</g>
</svg>
